<svg width="75" height="75" fill="none" xmlns="http://www.w3.org/2000/svg"><path d="M19.06 27.642v18.88l18.25 9.751m-18.25-28.63l18.25 9.39m-18.25-9.39l7.163-3.725m11.088 32.355l18.054-10.28v-18.35m-18.054 28.63v-19.24m18.054-9.39l-18.054-9.49-6.574 3.418m24.628 6.071l-6.77 3.522m-11.284 5.869l6.672-3.47m-17.76-9.645l17.76 9.644m-17.76-9.644l4.514-2.347m13.246 11.991l4.612-2.398m-4.612 2.398v4.36l2.65-3.36 1.962 1.186v-4.584M30.737 21.57l17.858 9.593" stroke="#8A8A8A" stroke-width="1.283"/><circle cx="37.213" cy="37.213" r="36.571" stroke="#8A8A8A" stroke-width="1.283"/></svg>