<svg width="75" height="75" fill="none" xmlns="http://www.w3.org/2000/svg"><path d="M26 40.994v12.382l11.562 6.395M26 40.993l11.562 6.158M26 40.994l4.538-2.443m7.024 21.22L49 53.029V40.993M37.562 59.77V47.152M49 40.994L37 35.27l-3.603 1.742M49 40.994l-4.29 2.31m-7.148 3.848l4.227-2.276m-11.251-6.325l11.251 6.325m-11.251-6.325l2.86-1.539m8.391 7.864l2.922-1.573m-2.922 1.573v2.86l1.679-2.204 1.243.778v-3.007m-11.314-6.29l11.314 6.29" stroke="#8A8A8A" stroke-width="1.283"/><path d="M15 23.996v11.391l11.06 5.883M15 23.996l11.06 5.666M15 23.996l4.34-2.247m6.72 19.521L37 35.069V23.996M26.06 41.27V29.662M37 23.996L26.06 18.27l-3.984 2.063M37 23.996l-4.103 2.125m-6.837 3.54l4.043-2.093m-10.763-5.82l10.763 5.82m-10.763-5.82l2.736-1.415m8.027 7.235l2.794-1.447m-2.794 1.447v2.63l1.605-2.027 1.19.716V26.12m-10.822-5.788l10.821 5.788M59.5 23.996v11.391l-11 5.383m11-16.774l-11.06 5.666m11.06-5.666l-4.34-2.247M48.5 40.77L37 35.27V23.996M48.5 40.77l-.06-11.108M37 23.996l11.44-5.726 3.984 2.063M37 23.996l4.603 2.125m6.837 3.54l-4.043-2.093m10.763-5.82l-10.763 5.82m10.763-5.82l-2.736-1.415m-8.027 7.235l-2.794-1.447m2.794 1.447v2.63l-1.605-2.027-1.19.716V26.12m10.822-5.788L41.603 26.12" stroke="#8A8A8A" stroke-width="1.283"/><circle cx="37.213" cy="37.348" r="36.571" stroke="#8A8A8A" stroke-width="1.283"/></svg>