<svg width="15" height="16" fill="none" xmlns="http://www.w3.org/2000/svg"><path d="M7.64 15.135c4.016 0 7.32-3.304 7.32-7.32S11.657.487 7.64.487C3.626.487.32 3.799.32 7.815s3.305 7.32 7.32 7.32zm0-.789a6.523 6.523 0 01-6.53-6.531 6.525 6.525 0 016.53-6.54 6.532 6.532 0 016.54 6.54 6.53 6.53 0 01-6.54 6.531zM4.673 8.213h2.57v2.579c0 .226.172.398.39.398a.386.386 0 00.4-.399V8.213h2.577a.382.382 0 00.399-.382c0-.235-.164-.407-.399-.407H8.031V4.846a.386.386 0 00-.398-.398.389.389 0 00-.39.398v2.578H4.671a.39.39 0 00-.406.407c0 .21.171.382.406.382z" fill="#A2CBE8"/></svg>