<svg width="26" height="27" fill="none" xmlns="http://www.w3.org/2000/svg"><path d="M13.121 26.5c7.027 0 12.81-5.783 12.81-12.81 0-7.028-5.783-12.825-12.81-12.825S.311 6.662.311 13.69c0 7.027 5.783 12.81 12.81 12.81zm0-1.38c-6.33 0-11.43-5.114-11.43-11.43 0-6.33 5.1-11.444 11.43-11.444A11.43 11.43 0 0124.564 13.69c0 6.316-5.113 11.43-11.443 11.43zm-4.553-6.167a.664.664 0 00.506-.219l4.047-4.047 4.047 4.047c.15.15.314.22.506.22a.674.674 0 00.683-.67.671.671 0 00-.205-.493l-4.074-4.074 4.074-4.074c.15-.15.22-.301.22-.493a.675.675 0 00-.684-.67c-.192 0-.342.069-.506.233l-4.06 4.06-4.061-4.06c-.15-.15-.288-.219-.493-.219-.382 0-.683.287-.683.656a.7.7 0 00.205.506l4.074 4.06-4.074 4.075a.671.671 0 00-.205.492c0 .37.3.67.683.67z" fill="#191916" fill-opacity=".1"/></svg>