<svg width="23" height="24" fill="none" xmlns="http://www.w3.org/2000/svg"><g opacity=".4" fill="#EAEAEA"><path d="M11.286 5.955a5.798 5.798 0 00-5.797 5.797 5.798 5.798 0 105.797-5.797zm0 9.557a3.76 3.76 0 110-7.521 3.76 3.76 0 010 7.521zm7.379-9.786a1.353 1.353 0 11-2.707 0 1.353 1.353 0 012.707 0z"/><path d="M22.505 7.101c-.053-1.199-.247-2.023-.525-2.737a5.507 5.507 0 00-1.305-2.002 5.554 5.554 0 00-1.997-1.3C17.96.784 17.14.59 15.941.537c-1.208-.057-1.592-.07-4.656-.07-3.063 0-3.447.013-4.65.066-1.2.053-2.024.247-2.738.524a5.506 5.506 0 00-2.001 1.305 5.556 5.556 0 00-1.3 1.997C.316 5.078.122 5.898.07 7.097.013 8.305 0 8.688 0 11.752s.013 3.447.066 4.651c.053 1.199.247 2.023.525 2.738a5.565 5.565 0 001.305 2.001 5.553 5.553 0 001.997 1.3c.718.278 1.538.472 2.737.525 1.204.053 1.587.066 4.651.066s3.447-.013 4.65-.066c1.2-.053 2.024-.247 2.738-.525a5.772 5.772 0 003.302-3.301c.278-.719.472-1.539.525-2.738.053-1.203.066-1.587.066-4.65 0-3.065-.005-3.448-.057-4.652zm-2.032 9.214c-.05 1.102-.234 1.697-.389 2.094a3.743 3.743 0 01-2.142 2.142c-.397.155-.996.34-2.094.388-1.19.053-1.547.066-4.558.066s-3.373-.013-4.558-.066c-1.103-.048-1.698-.233-2.094-.388a3.472 3.472 0 01-1.296-.842 3.51 3.51 0 01-.843-1.296c-.154-.396-.339-.996-.387-2.094-.053-1.19-.066-1.547-.066-4.558s.013-3.372.066-4.558c.048-1.102.233-1.697.387-2.094.181-.49.468-.935.847-1.296a3.503 3.503 0 011.296-.842c.397-.155.996-.34 2.094-.388 1.19-.053 1.547-.066 4.558-.066 3.016 0 3.373.013 4.558.066 1.103.048 1.698.233 2.095.388.489.18.934.467 1.296.842.374.366.66.806.841 1.296.155.397.34.996.389 2.094.052 1.19.066 1.547.066 4.558 0 3.01-.014 3.364-.067 4.554z"/></g></svg>