<svg width="26" height="15" fill="none" xmlns="http://www.w3.org/2000/svg"><path opacity=".4" d="M21.575 8.601c-.42-.525-.3-.758 0-1.227.006-.006 3.476-4.748 3.833-6.356l.002-.001C25.588.43 25.41 0 24.551 0H21.71c-.724 0-1.058.37-1.236.783 0 0-1.448 3.427-3.495 5.648-.661.641-.967.847-1.328.847-.177 0-.454-.205-.454-.792v-5.47c0-.702-.202-1.016-.801-1.016h-4.47C9.47 0 9.2.328 9.2.633c0 .667 1.024.82 1.13 2.695v4.068c0 .891-.164 1.055-.526 1.055-.967 0-3.312-3.44-4.702-7.377C4.823.31 4.548 0 3.819 0H.975C.164.001 0 .371 0 .784c0 .731.966 4.364 4.494 9.164C6.844 13.225 10.156 15 13.167 15c1.81 0 2.032-.394 2.032-1.072 0-3.131-.164-3.427.743-3.427.42 0 1.144.206 2.834 1.786C20.708 14.161 21.025 15 22.106 15h2.843c.81 0 1.22-.394.985-1.172-.54-1.636-4.194-5.002-4.359-5.227z" fill="#EAEAEA"/></svg>