<svg width="242" height="41" fill="none" xmlns="http://www.w3.org/2000/svg"><path d="M31 40.236a15.86 15.86 0 01-3.405.382c-3.106 0-5.208-.853-6.307-2.56-1.425-2.213-3.053-4.936-4.883-8.168-3.369-5.99-5.875-10.29-7.517-12.896V29.4c0 4.613.385 8.106 1.155 10.506-1.057.47-2.436.71-4.112.71-1.828 0-3.127-.266-3.897-.79-.77-.525-1.156-1.511-1.156-2.969 0-.577.027-1.902.08-3.973.054-2.07.081-3.733.081-5.004V16.994C1.04 11.154.693 7.128 0 4.915c1.756-.507 3.348-.761 4.775-.764 2.634 0 4.609.797 5.923 2.39 2.67 3.307 6.674 9.62 12.014 18.94l-.054-8.487c0-4.969-.128-9.104-.385-12.408 1.532-.258 2.67-.382 3.405-.382 3.584 0 5.375 1.052 5.375 3.155 0 .142-.071 1.68-.215 4.595-.143 2.915-.215 5.093-.215 6.506v9.306c0 5.013.126 9.17.377 12.47zm18.438-26.184c2.706 0 5.047.672 7.024 2.017 1.971 1.342 2.965 3.342 2.965 5.99 0 5.37-3.876 8.053-11.629 8.053-.699 0-1.953-.035-3.79-.106 0 2.07.523 3.575 1.568 4.515 1.045.939 2.336 1.41 3.87 1.413 2.707 0 4.809-.871 6.308-2.613.803.37 1.509.921 2.06 1.608.53.676.798 1.352.798 2.045 0 1.084-.654 1.955-1.944 2.613-1.29.657-2.562 1.049-3.79 1.2A30.71 30.71 0 0149.34 41c-4.023 0-7.314-1.096-9.873-3.288-2.56-2.193-3.84-5.54-3.844-10.044 0-2.977.705-5.525 2.115-7.643 1.41-2.119 3.13-3.642 5.16-4.569 2.016-.942 4.202-1.404 6.54-1.404zm-.44 5.173c-1.316 0-2.472.586-3.458 1.768-.985 1.182-1.496 2.916-1.532 5.2a44.8 44.8 0 002.168-.187 18.45 18.45 0 001.81-.355c.789-.178 1.353-.427 1.703-.738.349-.311.663-.747.958-1.307.296-.56.44-1.262.44-2.097a2.4 2.4 0 00-.601-1.582c-.412-.471-.905-.702-1.487-.702zm33.581-5.173c1.496 0 2.607.23 3.315.684.708.454 1.066 1.227 1.066 2.311 0 2.107-.833 5.48-2.5 10.123-1.666 4.649-3.36 8.106-5.07 10.4-1.461 2.035-3.62 3.05-6.478 3.048a14.536 14.536 0 01-3.62-.489c-.806-3.99-2.168-8.562-4.085-13.714-1.918-5.152-3.5-8.417-4.749-9.795 1.684-1.52 3.44-2.28 5.268-2.284 1.971 0 3.44 1.085 4.39 3.262 1.828 4.462 3.474 9.45 4.937 14.967 2.598-6.781 3.897-12.114 3.897-15.998a8.71 8.71 0 00-.161-1.689 8.805 8.805 0 013.79-.826zm21.01 0c2.706 0 5.047.672 7.024 2.017 1.971 1.342 2.966 3.342 2.966 5.99 0 5.37-3.877 8.053-11.63 8.053-.699 0-1.953-.035-3.79-.106 0 2.07.523 3.575 1.568 4.515 1.046.939 2.336 1.41 3.871 1.413 2.706 0 4.808-.871 6.307-2.613a5.7 5.7 0 012.061 1.608c.529.676.797 1.352.797 2.045 0 1.084-.654 1.955-1.944 2.613-1.29.657-2.562 1.049-3.79 1.2a30.7 30.7 0 01-3.539.213c-4.022 0-7.314-1.096-9.873-3.288-2.56-2.193-3.84-5.54-3.844-10.044 0-2.977.705-5.525 2.115-7.643 1.41-2.119 3.13-3.642 5.16-4.569 2.016-.942 4.202-1.404 6.541-1.404zm-.439 5.173c-1.317 0-2.473.586-3.459 1.768-.985 1.182-1.496 2.916-1.532 5.2a44.882 44.882 0 002.169-.187 18.382 18.382 0 001.809-.355c.789-.178 1.353-.427 1.703-.738.349-.311.663-.747.958-1.307.296-.56.439-1.262.439-2.097 0-.582-.213-1.144-.6-1.582-.412-.471-.905-.702-1.487-.702zM121.75.009c1.388 0 2.472.24 3.234.71.762.472 1.156 1.396 1.156 2.774 0 .213-.063 1.813-.188 4.79-.126 2.978-.189 5.209-.189 6.693V29.89c0 4.79.311 8.13.932 10.017a15.459 15.459 0 01-4.551.71c-1.72 0-2.921-.301-3.593-.897-.672-.595-1.012-1.475-1.012-2.64 0-.577.027-1.848.08-3.813.054-1.955.081-3.555.081-4.79v-15.02c0-5.191-.128-9.437-.385-12.737 1.428-.48 2.927-.72 4.435-.711zm28.634 14.043c1.496 0 2.607.23 3.315.684.708.454 1.066 1.227 1.066 2.311 0 2.107-.833 5.48-2.499 10.123-1.667 4.649-3.36 8.106-5.071 10.4-1.461 2.035-3.62 3.05-6.478 3.048a14.537 14.537 0 01-3.62-.489c-.806-3.99-2.168-8.562-4.085-13.714-1.917-5.152-3.5-8.417-4.749-9.795 1.685-1.52 3.441-2.28 5.269-2.284 1.971 0 3.44 1.085 4.39 3.262 1.827 4.462 3.473 9.45 4.936 14.967 2.599-6.778 3.898-12.11 3.898-15.998a8.703 8.703 0 00-.162-1.689 8.838 8.838 0 013.79-.826zm21.019 0c2.706 0 5.047.672 7.024 2.017 1.971 1.342 2.966 3.342 2.966 5.99 0 5.37-3.877 8.053-11.63 8.053-.698 0-1.953-.035-3.789-.106 0 2.07.522 3.575 1.568 4.515 1.045.939 2.335 1.41 3.87 1.413 2.706 0 4.808-.871 6.307-2.613a5.7 5.7 0 012.061 1.608c.529.676.797 1.352.797 2.045 0 1.084-.654 1.955-1.944 2.613-1.29.657-2.562 1.049-3.79 1.2-1.174.139-2.356.21-3.538.213-4.023 0-7.314-1.096-9.874-3.288-2.559-2.193-3.84-5.54-3.843-10.044 0-2.977.704-5.525 2.114-7.643 1.41-2.119 3.13-3.642 5.161-4.569 2.016-.942 4.202-1.404 6.54-1.404zm-.439 5.173c-1.317 0-2.473.586-3.458 1.768-.986 1.182-1.497 2.916-1.532 5.2a44.82 44.82 0 002.168-.187 18.459 18.459 0 001.81-.355c.788-.178 1.353-.427 1.702-.738s.663-.747.959-1.307c.295-.56.439-1.262.439-2.097a2.395 2.395 0 00-.601-1.582c-.412-.471-.905-.702-1.487-.702zm14.156-4.08c1.496-.471 2.93-.711 4.282-.711 2.67 0 4.188 1.07 4.552 3.208 2.374-2.355 5.08-3.534 8.117-3.537 2.491 0 4.534.711 6.146 2.124 1.613 1.413 2.41 3.431 2.41 6.044 0 .071-.026 1.378-.08 3.92a295.175 295.175 0 00-.081 5.768c0 3.12.311 5.768.932 7.946a16.581 16.581 0 01-4.775.71c-2.93 0-4.391-1.101-4.391-3.323 0-1.307.054-3.71.162-7.208.107-3.5.161-5.612.161-6.337 0-1.485-.305-2.605-.905-3.351-.6-.747-1.38-1.12-2.329-1.12-1.532 0-3.235.889-5.107 2.666.071 4.649.107 8 .107 10.07 0 3.191.09 5.99.278 8.382-1.21.106-2.285.16-3.234.16-3.656 0-5.484-.871-5.484-2.613 0-.143.045-1.414.135-3.813.089-2.391.134-4.877.134-7.457.009-5.91-.334-9.753-1.03-11.528zm30.005 12.408c0-3.733 1.042-6.918 3.127-9.555 2.084-2.637 4.682-3.952 7.794-3.946 2.052 0 4.113.613 6.2 1.848.072-2.32.108-4.153.108-5.501 0-3.955-.147-7.185-.439-9.688C233.599.24 234.827 0 235.588 0c3.405 0 5.107 1.161 5.107 3.484 0 2.142-.084 6.26-.251 12.354-.167 6.094-.251 10.248-.251 12.461 0 5.733.347 9.688 1.04 11.865-1.757.436-3.181.65-4.283.65-1.532 0-2.634-.285-3.288-.845-.654-.56-1.093-1.333-1.317-2.31a11.857 11.857 0 01-3.315 2.39c-1.263.613-2.464.924-3.593.924-2.813 0-5.235-1.27-7.266-3.813-2.025-2.515-3.04-5.717-3.046-9.607zm16.906-7.129c-1.093-.8-2.231-1.2-3.404-1.2-1.649 0-2.948.718-3.898 2.151-.949 1.431-1.424 3.333-1.424 5.689 0 2.613.475 4.764 1.424 6.452.95 1.69 2.121 2.533 3.512 2.533 1.613 0 2.912-.545 3.898-1.635-.072-7.484-.108-12.147-.108-13.99z" fill="#fff"/></svg>