<svg width="453" height="1390" fill="none" xmlns="http://www.w3.org/2000/svg"><g opacity=".25" stroke="#8A8A8A"><circle cx="226.5" cy="226.5" r="226"/><circle cx="226.5" cy="226.5" r="179.368"/><circle cx="226.5" cy="226.5" r="136.066"/><circle cx="226.5" cy="226.5" r="96.096"/><circle cx="226.5" cy="226.5" r="62.787"/></g><g opacity=".8" stroke="#8A8A8A"><path opacity=".45" d="M226.5 846.5c-62.46 0-118.985-17.047-159.88-44.581C25.72 774.383.5 736.395.5 694.5c0-41.895 25.221-79.883 66.12-107.419 40.895-27.534 97.42-44.581 159.88-44.581 62.46 0 118.985 17.047 159.88 44.581 40.899 27.536 66.12 65.524 66.12 107.419 0 41.895-25.221 79.883-66.12 107.419-40.895 27.534-97.42 44.581-159.88 44.581z"/><path opacity=".45" d="M226.5 820.5c-51.691 0-98.465-14.136-132.303-36.965C60.357 760.703 39.5 729.216 39.5 694.5c0-34.716 20.856-66.203 54.697-89.035C128.035 582.636 174.81 568.5 226.5 568.5s98.465 14.136 132.303 36.965c33.841 22.832 54.697 54.319 54.697 89.035 0 34.716-20.856 66.203-54.697 89.035C324.965 806.364 278.191 820.5 226.5 820.5z"/><path opacity=".45" d="M226.5 793.5c-40.092 0-76.367-11.002-102.604-28.764C97.656 746.972 81.5 722.484 81.5 695.5s16.156-51.472 42.396-69.236C150.133 608.502 186.408 597.5 226.5 597.5s76.367 11.002 102.604 28.764c26.24 17.764 42.396 42.252 42.396 69.236s-16.156 51.472-42.396 69.236C302.867 782.498 266.592 793.5 226.5 793.5z"/><path opacity=".45" d="M226.5 763.5c-27.942 0-53.217-7.644-71.492-19.978-18.277-12.335-29.508-29.323-29.508-48.022 0-18.699 11.231-35.687 29.508-48.022 18.275-12.334 43.55-19.978 71.492-19.978 27.942 0 53.217 7.644 71.492 19.978 18.277 12.335 29.508 29.323 29.508 48.022 0 18.699-11.231 35.687-29.508 48.022-18.275 12.334-43.55 19.978-71.492 19.978z"/><path opacity=".45" d="M226.5 737.5c-17.45 0-33.225-4.735-44.623-12.363-11.402-7.631-18.377-18.119-18.377-29.637s6.975-22.006 18.377-29.637c11.398-7.628 27.173-12.363 44.623-12.363s33.225 4.735 44.623 12.363c11.402 7.631 18.377 18.119 18.377 29.637s-6.975 22.006-18.377 29.637C259.725 732.765 243.95 737.5 226.5 737.5z"/></g><path opacity=".6" d="M226.646 555.354a.502.502 0 00.708 0l3.182-3.182a.502.502 0 00-.708-.708L227 554.293l-2.828-2.829a.502.502 0 00-.708.708l3.182 3.182zM226.5 427v128h1V427h-1z" fill="url(#paint0_linear)"/><path opacity=".6" d="M226.646 964.354a.502.502 0 00.708 0l3.182-3.182a.502.502 0 00-.708-.708L227 963.293l-2.828-2.829a.502.502 0 00-.708.708l3.182 3.182zM226.5 833v131h1V833h-1z" fill="url(#paint1_linear)"/><g opacity=".45" stroke="#8A8A8A"><circle cx="226.5" cy="1163.5" r="226"/><circle cx="226.5" cy="1163.5" r="179.368"/><circle cx="226.5" cy="1163.5" r="136.066"/><circle cx="226.5" cy="1163.5" r="96.096"/><circle cx="226.5" cy="1163.5" r="62.787"/></g><defs><linearGradient id="paint0_linear" x1="233.597" y1="398.553" x2="152.165" y2="471.804" gradientUnits="userSpaceOnUse"><stop stop-color="#fff" stop-opacity="0"/><stop offset="1" stop-color="#fff" stop-opacity=".6"/></linearGradient><linearGradient id="paint1_linear" x1="233.752" y1="803.886" x2="150.411" y2="878.854" gradientUnits="userSpaceOnUse"><stop stop-color="#fff" stop-opacity="0"/><stop offset="1" stop-color="#fff" stop-opacity=".6"/></linearGradient></defs></svg>